<svg width="22" height="21" viewBox="0 0 22 21" fill="none" xmlns="http://www.w3.org/2000/svg">
<path fill-rule="evenodd" clip-rule="evenodd" d="M2.55192 11.5921C2.19689 11.9455 1.62129 11.9455 1.26627 11.5921C0.911244 11.2388 0.911244 10.6659 1.26627 10.3126L10.3572 1.265C10.7122 0.911667 11.2878 0.911667 11.6428 1.265L20.7337 10.3126C21.0888 10.6659 21.0888 11.2388 20.7337 11.5921C20.3787 11.9455 19.8031 11.9455 19.4481 11.5921L19.1818 11.3274V18.1945C19.1818 19.1933 18.3689 20 17.3628 20H4.63716C3.63348 20 2.81818 19.1934 2.81818 18.1945V11.3274L2.55192 11.5921ZM4.63716 18.1905L7.36364 18.191V12.7597C7.36364 12.2612 7.77023 11.8571 8.27003 11.8571H13.73C14.2306 11.8571 14.6364 12.2609 14.6364 12.7597V18.1929L17.3636 18.1945V9.51944L11 3.19166L4.63632 9.51948C4.63613 11.2308 4.63716 18.1905 4.63716 18.1905ZM12.8182 13.6653V18.1923L9.18182 18.1914V13.6667L12.8182 13.6653Z" fill="black" fill-opacity="0.24"/>
<path d="M1.26627 11.5921L0.913558 11.9465L0.913558 11.9465L1.26627 11.5921ZM2.55192 11.5921L2.19936 11.2376L2.19921 11.2377L2.55192 11.5921ZM1.26627 10.3126L0.913558 9.95822L0.913558 9.95822L1.26627 10.3126ZM10.3572 1.265L10.0045 0.910602L10.0045 0.910602L10.3572 1.265ZM11.6428 1.265L11.9955 0.910602L11.9955 0.910602L11.6428 1.265ZM20.7337 10.3126L20.381 10.667L20.381 10.667L20.7337 10.3126ZM19.4481 11.5921L19.8008 11.2377L19.8006 11.2376L19.4481 11.5921ZM19.1818 11.3274L19.5344 10.9728L18.6818 10.1251V11.3274H19.1818ZM2.81818 11.3274H3.31818V10.1251L2.46563 10.9728L2.81818 11.3274ZM7.36364 18.191L7.36354 18.691L7.86364 18.6911V18.191H7.36364ZM4.63716 18.1905L4.13716 18.1905L4.13723 18.6904L4.63706 18.6905L4.63716 18.1905ZM14.6364 18.1929H14.1364V18.6926L14.6361 18.6929L14.6364 18.1929ZM17.3636 18.1945L17.3633 18.6945L17.8636 18.6948V18.1945H17.3636ZM17.3636 9.51944H17.8636V9.31151L17.7162 9.16489L17.3636 9.51944ZM11 3.19166L11.3526 2.83711L11 2.48654L10.6474 2.83711L11 3.19166ZM4.63632 9.51948L4.28377 9.16493L4.13634 9.31153L4.13632 9.51943L4.63632 9.51948ZM12.8182 18.1923L12.8181 18.6923L13.3182 18.6924V18.1923H12.8182ZM12.8182 13.6653H13.3182V13.1651L12.818 13.1653L12.8182 13.6653ZM9.18182 18.1914H8.68182V18.6913L9.18169 18.6914L9.18182 18.1914ZM9.18182 13.6667L9.18162 13.1667L8.68182 13.1669V13.6667H9.18182ZM0.913558 11.9465C1.46365 12.494 2.35453 12.494 2.90462 11.9465L2.19921 11.2377C2.03925 11.3969 1.77893 11.3969 1.61898 11.2377L0.913558 11.9465ZM0.913558 9.95822C0.362147 10.507 0.362147 11.3978 0.913558 11.9465L1.61898 11.2377C1.46034 11.0799 1.46034 10.8249 1.61898 10.667L0.913558 9.95822ZM10.0045 0.910602L0.913558 9.95822L1.61898 10.667L10.7099 1.61939L10.0045 0.910602ZM11.9955 0.910602C11.4454 0.363133 10.5546 0.363133 10.0045 0.910602L10.7099 1.61939C10.8698 1.4602 11.1302 1.4602 11.2901 1.61939L11.9955 0.910602ZM21.0864 9.95822L11.9955 0.910602L11.2901 1.61939L20.381 10.667L21.0864 9.95822ZM21.0864 11.9465C21.6379 11.3978 21.6379 10.507 21.0864 9.95822L20.381 10.667C20.5397 10.8249 20.5397 11.0799 20.381 11.2377L21.0864 11.9465ZM19.0954 11.9465C19.6455 12.494 20.5364 12.494 21.0864 11.9465L20.381 11.2377C20.2211 11.3969 19.9607 11.3969 19.8008 11.2377L19.0954 11.9465ZM18.8293 11.6819L19.0955 11.9467L19.8006 11.2376L19.5344 10.9728L18.8293 11.6819ZM19.6818 18.1945V11.3274H18.6818V18.1945H19.6818ZM17.3628 20.5C18.6415 20.5 19.6818 19.473 19.6818 18.1945H18.6818C18.6818 18.9136 18.0963 19.5 17.3628 19.5V20.5ZM4.63716 20.5H17.3628V19.5H4.63716V20.5ZM2.31818 18.1945C2.31818 19.4735 3.36133 20.5 4.63716 20.5V19.5C3.90564 19.5 3.31818 18.9133 3.31818 18.1945H2.31818ZM2.31818 11.3274V18.1945H3.31818V11.3274H2.31818ZM2.90447 11.9467L3.17073 11.6819L2.46563 10.9728L2.19936 11.2376L2.90447 11.9467ZM7.36373 17.691L4.63725 17.6905L4.63706 18.6905L7.36354 18.691L7.36373 17.691ZM6.86364 12.7597V18.191H7.86364V12.7597H6.86364ZM8.27003 11.3571C7.49639 11.3571 6.86364 11.9828 6.86364 12.7597H7.86364C7.86364 12.5397 8.04408 12.3571 8.27003 12.3571V11.3571ZM13.73 11.3571H8.27003V12.3571H13.73V11.3571ZM15.1364 12.7597C15.1364 11.9827 14.5046 11.3571 13.73 11.3571V12.3571C13.9565 12.3571 14.1364 12.5392 14.1364 12.7597H15.1364ZM15.1364 18.1929V12.7597H14.1364V18.1929H15.1364ZM17.3639 17.6945L14.6367 17.6929L14.6361 18.6929L17.3633 18.6945L17.3639 17.6945ZM16.8636 9.51944V18.1945H17.8636V9.51944H16.8636ZM10.6474 3.54621L17.0111 9.87399L17.7162 9.16489L11.3526 2.83711L10.6474 3.54621ZM4.98887 9.87403L11.3526 3.54621L10.6474 2.83711L4.28377 9.16493L4.98887 9.87403ZM4.63716 18.1905C5.13716 18.1904 5.13716 18.1904 5.13716 18.1903C5.13716 18.1903 5.13716 18.1902 5.13716 18.1901C5.13716 18.1899 5.13716 18.1896 5.13716 18.1891C5.13716 18.1883 5.13716 18.187 5.13716 18.1854C5.13715 18.182 5.13715 18.177 5.13715 18.1704C5.13715 18.1572 5.13715 18.1375 5.13714 18.1118C5.13714 18.0604 5.13713 17.9848 5.13711 17.888C5.13708 17.6944 5.13705 17.4158 5.137 17.0762C5.13691 16.397 5.13678 15.4736 5.13667 14.4966C5.13643 12.5428 5.13623 10.3751 5.13632 9.51954L4.13632 9.51943C4.13623 10.3751 4.13643 12.543 4.13667 14.4968C4.13678 15.4737 4.13691 16.3971 4.137 17.0763C4.13705 17.416 4.13708 17.6945 4.13711 17.8882C4.13713 17.985 4.13714 18.0606 4.13714 18.112C4.13715 18.1377 4.13715 18.1573 4.13715 18.1705C4.13715 18.1771 4.13715 18.1821 4.13716 18.1855C4.13716 18.1872 4.13716 18.1884 4.13716 18.1893C4.13716 18.1897 4.13716 18.19 4.13716 18.1902C4.13716 18.1903 4.13716 18.1904 4.13716 18.1905C4.13716 18.1905 4.13716 18.1905 4.63716 18.1905ZM13.3182 18.1923V13.6653H12.3182V18.1923H13.3182ZM9.18169 18.6914L12.8181 18.6923L12.8183 17.6923L9.18194 17.6914L9.18169 18.6914ZM8.68182 13.6667V18.1914H9.68182V13.6667H8.68182ZM12.818 13.1653L9.18162 13.1667L9.18201 14.1667L12.8184 14.1653L12.818 13.1653Z" fill="black" fill-opacity="0.24"/>
</svg>
