<svg width="20" height="20" viewBox="0 0 20 20" fill="none" xmlns="http://www.w3.org/2000/svg">
<g opacity="0.24">
<path fill-rule="evenodd" clip-rule="evenodd" d="M4.9056 2C4.9056 1.44772 5.35471 1 5.901 1H13.9102C14.4599 1 14.9056 1.44386 14.9056 2C14.9056 2.55228 14.4565 3 13.9102 3H5.901C5.35125 3 4.9056 2.55614 4.9056 2ZM1.0101 9.0949L1.81102 17.1041C1.91727 18.1665 2.83603 19 3.90122 19H15.91C16.9712 19 17.8943 18.1632 18.0002 17.1041L18.8011 9.0949C18.9152 7.95379 18.0495 7 16.9047 7H2.90647C1.75932 7 0.896188 7.95576 1.0101 9.0949ZM3.01101 9.00421L16.7998 9.0079L15.9056 17H3.9056L3.01101 9.00421ZM3.90122 4C3.35555 4 2.9056 4.44772 2.9056 5C2.9056 5.55614 3.35136 6 3.90122 6H15.91C16.4557 6 16.9056 5.55228 16.9056 5C16.9056 4.44386 16.4598 4 15.91 4H3.90122Z" fill="black" fill-opacity="0.24"/>
<path d="M1.81102 17.1041L1.3135 17.1539L1.3135 17.1539L1.81102 17.1041ZM1.0101 9.0949L1.50762 9.04515L1.50762 9.04515L1.0101 9.0949ZM18.0002 17.1041L18.4977 17.1539L18.4977 17.1539L18.0002 17.1041ZM18.8011 9.0949L18.3036 9.04515L18.3036 9.04515L18.8011 9.0949ZM16.7998 9.0079L17.2967 9.0635L17.3589 8.50805L16.8 8.5079L16.7998 9.0079ZM3.01101 9.00421L3.01114 8.50421L2.45193 8.50406L2.51411 9.05981L3.01101 9.00421ZM15.9056 17V17.5H16.3528L16.4025 17.0556L15.9056 17ZM3.9056 17L3.4087 17.0556L3.45842 17.5H3.9056V17ZM5.901 0.5C5.07752 0.5 4.4056 1.17262 4.4056 2H5.4056C5.4056 1.72281 5.63189 1.5 5.901 1.5V0.5ZM13.9102 0.5H5.901V1.5H13.9102V0.5ZM15.4056 2C15.4056 1.16864 14.737 0.5 13.9102 0.5V1.5C14.1829 1.5 14.4056 1.71909 14.4056 2H15.4056ZM13.9102 3.5C14.7337 3.5 15.4056 2.82738 15.4056 2H14.4056C14.4056 2.27719 14.1793 2.5 13.9102 2.5V3.5ZM5.901 3.5H13.9102V2.5H5.901V3.5ZM4.4056 2C4.4056 2.83136 5.07419 3.5 5.901 3.5V2.5C5.62832 2.5 5.4056 2.28091 5.4056 2H4.4056ZM2.30854 17.0544L1.50762 9.04515L0.512584 9.14465L1.3135 17.1539L2.30854 17.0544ZM3.90122 18.5C3.09393 18.5 2.38933 17.8622 2.30854 17.0544L1.3135 17.1539C1.44521 18.4709 2.57812 19.5 3.90122 19.5V18.5ZM15.91 18.5H3.90122V19.5H15.91V18.5ZM17.5027 17.0544C17.4222 17.8588 16.7134 18.5 15.91 18.5V19.5C17.229 19.5 18.3663 18.4677 18.4977 17.1539L17.5027 17.0544ZM18.3036 9.04515L17.5027 17.0544L18.4977 17.1539L19.2986 9.14465L18.3036 9.04515ZM16.9047 7.5C17.7542 7.5 18.3882 8.19892 18.3036 9.04515L19.2986 9.14465C19.4422 7.70866 18.3448 6.5 16.9047 6.5V7.5ZM2.90647 7.5H16.9047V6.5H2.90647V7.5ZM1.50762 9.04515C1.42312 8.20012 2.05537 7.5 2.90647 7.5V6.5C1.46328 6.5 0.369259 7.7114 0.512584 9.14465L1.50762 9.04515ZM16.8 8.5079L3.01114 8.50421L3.01087 9.50421L16.7997 9.5079L16.8 8.5079ZM16.4025 17.0556L17.2967 9.0635L16.3029 8.95231L15.4087 16.9444L16.4025 17.0556ZM3.9056 17.5H15.9056V16.5H3.9056V17.5ZM2.51411 9.05981L3.4087 17.0556L4.4025 16.9444L3.50791 8.94862L2.51411 9.05981ZM3.4056 5C3.4056 4.72316 3.63239 4.5 3.90122 4.5V3.5C3.07871 3.5 2.4056 4.17227 2.4056 5H3.4056ZM3.90122 5.5C3.62831 5.5 3.4056 5.28081 3.4056 5H2.4056C2.4056 5.83146 3.0744 6.5 3.90122 6.5V5.5ZM15.91 5.5H3.90122V6.5H15.91V5.5ZM16.4056 5C16.4056 5.27684 16.1788 5.5 15.91 5.5V6.5C16.7325 6.5 17.4056 5.82773 17.4056 5H16.4056ZM15.91 4.5C16.1829 4.5 16.4056 4.71919 16.4056 5H17.4056C17.4056 4.16854 16.7368 3.5 15.91 3.5V4.5ZM3.90122 4.5H15.91V3.5H3.90122V4.5Z" fill="black"/>
</g>
</svg>
