<svg width="18" height="23" viewBox="0 0 18 23" fill="none" xmlns="http://www.w3.org/2000/svg">
<g opacity="0.24">
<path fill-rule="evenodd" clip-rule="evenodd" d="M14.615 8.20041C16.1323 9.51081 17 11.1175 17 13.321C17 17.9118 13.4133 21.5268 9.0115 21.5268C4.60573 21.5268 1 17.9093 1 13.321C1 10.7941 1.54758 9.23242 3.15502 6.6366C3.66365 5.81522 4.89867 6.11434 4.99436 7.08209C5.08034 7.95167 5.34435 8.69187 5.729 9.25935C5.47244 6.19295 6.80372 2.74433 10.0863 1.10596C10.8463 0.72665 11.6943 1.42451 11.4966 2.26648C10.9841 4.44851 11.5121 5.62244 12.8924 6.88709C12.926 6.91795 13.098 7.04489 13.3254 7.21279C13.7373 7.51686 14.3311 7.95524 14.615 8.20041ZM3.62075 10.0074C3.33897 10.6634 3 11.4525 3 13.321C3 16.7681 5.70107 19.478 9.0115 19.478C12.3159 19.478 15 16.7727 15 13.321C15 11.7811 14.4246 10.7158 13.3258 9.76679C13.1524 9.61699 12.7458 9.31456 12.3632 9.0299C12.0014 8.76076 11.6609 8.5075 11.559 8.41416C10.2339 7.20002 9.4238 5.9071 9.31376 4.18307C8.64377 4.85212 7.10424 6.93208 7.97198 11.0484C8.1065 11.6865 7.6318 12.289 6.99451 12.289C5.73006 12.289 4.48016 11.2984 3.71627 9.78204C3.68562 9.85634 3.65357 9.93095 3.62075 10.0074Z" fill="black" fill-opacity="0.24"/>
<path d="M14.615 8.20041L14.9418 7.822L14.9418 7.822L14.615 8.20041ZM3.15502 6.6366L3.58011 6.89984L3.58011 6.89984L3.15502 6.6366ZM4.99436 7.08209L4.49679 7.13129L4.49679 7.13129L4.99436 7.08209ZM5.729 9.25935L5.31512 9.53989L6.38646 11.1204L6.22726 9.21766L5.729 9.25935ZM10.0863 1.10596L9.86303 0.658587L9.86303 0.658587L10.0863 1.10596ZM11.4966 2.26648L11.0098 2.15216L11.0098 2.15216L11.4966 2.26648ZM12.8924 6.88709L12.5546 7.25575L12.5546 7.25575L12.8924 6.88709ZM13.3254 7.21279L13.6224 6.81054L13.6224 6.81054L13.3254 7.21279ZM3.62075 10.0074L4.08016 10.2047L4.08016 10.2047L3.62075 10.0074ZM13.3258 9.76679L12.999 10.1452L12.999 10.1452L13.3258 9.76679ZM12.3632 9.0299L12.6616 8.62873L12.6616 8.62873L12.3632 9.0299ZM11.559 8.41416L11.8968 8.04551L11.8968 8.04551L11.559 8.41416ZM9.31376 4.18307L9.81275 4.15122L9.74236 3.04846L8.96046 3.82927L9.31376 4.18307ZM7.97198 11.0484L8.46122 10.9453L8.46122 10.9453L7.97198 11.0484ZM3.71627 9.78204L4.16281 9.55709L3.67093 8.58068L3.25404 9.59139L3.71627 9.78204ZM17.5 13.321C17.5 10.9571 16.557 9.21701 14.9418 7.822L14.2882 8.57882C15.7075 9.80461 16.5 11.278 16.5 13.321H17.5ZM9.0115 22.0268C13.6993 22.0268 17.5 18.178 17.5 13.321H16.5C16.5 17.6456 13.1273 21.0268 9.0115 21.0268V22.0268ZM0.5 13.321C0.5 18.1771 4.32134 22.0268 9.0115 22.0268V21.0268C4.89012 21.0268 1.5 17.6415 1.5 13.321H0.5ZM2.72992 6.37336C1.91763 7.68512 1.35538 8.76334 0.999588 9.84894C0.641661 10.941 0.5 12.0178 0.5 13.321H1.5C1.5 12.0974 1.63213 11.1298 1.94985 10.1604C2.26971 9.18445 2.78497 8.1839 3.58011 6.89984L2.72992 6.37336ZM5.49193 7.03289C5.35118 5.60942 3.50084 5.12842 2.72992 6.37336L3.58011 6.89984C3.82646 6.50201 4.44616 6.61926 4.49679 7.13129L5.49193 7.03289ZM6.14288 8.97881C5.81141 8.4898 5.57093 7.83185 5.49193 7.03289L4.49679 7.13129C4.58975 8.07149 4.87728 8.89394 5.31512 9.53989L6.14288 8.97881ZM9.86303 0.658587C6.35845 2.40775 4.96106 6.07777 5.23074 9.30104L6.22726 9.21766C5.98383 6.30813 7.24899 3.08091 10.3096 1.55333L9.86303 0.658587ZM11.9833 2.38081C12.271 1.156 11.029 0.0766247 9.86303 0.658587L10.3096 1.55333C10.6635 1.37668 11.1177 1.69302 11.0098 2.15216L11.9833 2.38081ZM13.2302 6.51844C12.5708 5.91434 12.1619 5.37362 11.9592 4.76325C11.7573 4.15513 11.7401 3.4163 11.9833 2.38081L11.0098 2.15216C10.7405 3.29869 10.7311 4.23784 11.0102 5.07835C11.2885 5.91662 11.8337 6.59519 12.5546 7.25575L13.2302 6.51844ZM13.6224 6.81054C13.5082 6.72621 13.4098 6.6536 13.3358 6.5982C13.2987 6.57044 13.2693 6.54825 13.248 6.53176C13.2208 6.51075 13.2205 6.50963 13.2302 6.51844L12.5546 7.25575C12.5947 7.29247 12.6723 7.3507 12.7367 7.3989C12.8139 7.45666 12.9152 7.53147 13.0285 7.61504L13.6224 6.81054ZM14.9418 7.822C14.6396 7.56101 14.0257 7.1083 13.6224 6.81054L13.0285 7.61504C13.4488 7.92541 14.0226 8.34946 14.2882 8.57882L14.9418 7.822ZM3.5 13.321C3.5 11.5375 3.81746 10.8163 4.08016 10.2047L3.16134 9.81003C2.86049 10.5104 2.5 11.3675 2.5 13.321H3.5ZM9.0115 18.978C5.98545 18.978 3.5 16.5003 3.5 13.321H2.5C2.5 17.036 5.41669 19.978 9.0115 19.978V18.978ZM14.5 13.321C14.5 16.5069 12.0297 18.978 9.0115 18.978V19.978C12.6022 19.978 15.5 17.0386 15.5 13.321H14.5ZM12.999 10.1452C14.0015 11.011 14.5 11.9435 14.5 13.321H15.5C15.5 11.6187 14.8478 10.4206 13.6526 9.38838L12.999 10.1452ZM12.0647 9.43107C12.4572 9.72302 12.8433 10.0107 12.999 10.1452L13.6526 9.38838C13.4615 9.22328 13.0345 8.9061 12.6616 8.62873L12.0647 9.43107ZM11.2213 8.78281C11.3478 8.89875 11.7203 9.17484 12.0647 9.43107L12.6616 8.62873C12.2824 8.34667 11.974 8.11625 11.8968 8.04551L11.2213 8.78281ZM8.81478 4.21492C8.93553 6.1069 9.83435 7.51206 11.2213 8.78281L11.8968 8.04551C10.6335 6.88797 9.91206 5.7073 9.81275 4.15122L8.81478 4.21492ZM8.46122 10.9453C7.63181 7.01075 9.10447 5.09868 9.66707 4.53687L8.96046 3.82927C8.18307 4.60556 6.57666 6.85341 7.48273 11.1515L8.46122 10.9453ZM6.99451 12.789C7.96439 12.789 8.65814 11.8794 8.46122 10.9453L7.48273 11.1515C7.55485 11.4936 7.29921 11.789 6.99451 11.789V12.789ZM3.26973 10.007C4.07826 11.612 5.46575 12.789 6.99451 12.789V11.789C5.99436 11.789 4.88206 10.9849 4.16281 9.55709L3.26973 10.007ZM4.08016 10.2047C4.11273 10.1289 4.14623 10.0509 4.17849 9.9727L3.25404 9.59139C3.22502 9.66176 3.19442 9.73301 3.16134 9.81003L4.08016 10.2047Z" fill="black"/>
</g>
</svg>
