<svg width="0" height="0" class="hidden">
  <symbol  xmlns="http://www.w3.org/2000/svg" viewBox="0 0 19 19" id="search">
    <path fill-rule="evenodd" clip-rule="evenodd" d="M17.9 16.486l-3.58-3.58a8 8 0 10-1.415 1.413l3.58 3.58a1 1 0 101.416-1.413zM13.198 11A6 6 0 112.804 5a6 6 0 0110.393 6z"></path>
  </symbol>
   <symbol  xmlns="http://www.w3.org/2000/svg" viewBox="0 0 27 20" id="video">
    <path  fill-rule="evenodd" clip-rule="evenodd" d="M22.208 2.868L18.41 5.682v-3.18C18.41 1.119 17.31 0 15.955 0h-13.5C1.095 0 0 1.12 0 2.503v14.994C0 18.882 1.099 20 2.454 20h13.501c1.358 0 2.454-1.12 2.454-2.503v-3.179l3.8 2.814a2.19 2.19 0 001.111.368h2.45c.686 0 1.23-.561 1.23-1.253V3.753c0-.692-.551-1.253-1.23-1.253h-2.45a2.16 2.16 0 00-1.112.368zM2.455 17.5v-15h13.5v15h-13.5zm2.454-3.75c0-.69.55-1.25 1.231-1.25h6.13c.679 0 1.23.555 1.23 1.25 0 .69-.55 1.25-1.23 1.25H6.14c-.68 0-1.23-.555-1.23-1.25zM23.511 15l-5.087-3.762V8.762l5.083-3.765 1.038.001v10L23.512 15z" ></path>
  </symbol>
  <svg width="0" height="0" class="hidden">
  <symbol  xmlns="http://www.w3.org/2000/svg" viewBox="0 0 22 21" id="home">
    <path fill-rule="evenodd" clip-rule="evenodd" d="M2.552 11.592a.912.912 0 01-1.286 0 .902.902 0 010-1.28l9.091-9.047a.912.912 0 011.286 0l9.09 9.048a.902.902 0 010 1.28.912.912 0 01-1.285 0l-.266-.266v6.868A1.81 1.81 0 0117.362 20H4.638a1.812 1.812 0 01-1.819-1.805v-6.868l-.266.265zm2.085 6.598l2.727.001V12.76c0-.499.406-.903.906-.903h5.46c.5 0 .906.404.906.903v5.433l2.728.002V9.519L11 3.192 4.636 9.519l.001 8.671zm8.181-4.525v4.527H9.182v-4.525l3.636-.002z"></path>
    <path d="M1.266 11.592l-.352.354.352-.354zm1.286 0l-.353-.354.353.354zm-1.286-1.28l-.352-.354.352.355zm9.091-9.047l-.352-.354.352.354zm1.286 0l.352-.354-.352.354zm9.09 9.048l-.352.354.353-.354zm-1.285 1.28l.353-.355-.353.354zm-.266-.266l.352-.354-.852-.848v1.202h.5zm-16.364 0h.5v-1.202l-.852.848.352.354zm4.546 6.864v.5h.5v-.5h-.5zm-2.727 0h-.5v.5h.5v-.5zm10 .002h-.5v.5h.5v-.5zm2.727.002v.5h.5v-.5h-.5zm0-8.676h.5v-.207l-.148-.147-.352.354zM11 3.192l.353-.355-.353-.35-.353.35.353.355zM4.636 9.519l-.352-.354-.148.147v.207h.5zm8.182 8.673v.5h.5v-.5h-.5zm0-4.527h.5v-.5h-.5v.5zm-3.636 4.526h-.5v.5h.5v-.5zm0-4.524v-.5h-.5v.5h.5zm-8.268-1.72c.55.547 1.44.547 1.99 0l-.705-.71a.41.41 0 01-.58 0l-.705.71zm0-1.989a1.402 1.402 0 000 1.989l.705-.71a.402.402 0 010-.57l-.705-.709zm9.09-9.047L.915 9.958l.705.709 9.09-9.048-.704-.708zm1.992 0a1.412 1.412 0 00-1.992 0l.706.708a.412.412 0 01.58 0l.706-.708zm9.09 9.047L11.996.911l-.706.708 9.091 9.048.705-.709zm0 1.989a1.402 1.402 0 000-1.989l-.705.709a.402.402 0 010 .57l.705.71zm-1.99 0c.55.547 1.44.547 1.99 0l-.705-.71a.41.41 0 01-.58 0l-.706.71zm-.267-.265l.267.265.705-.71-.267-.264-.705.709zm.853 6.513v-6.868h-1v6.868h1zm-2.32 2.305a2.31 2.31 0 002.32-2.305h-1a1.31 1.31 0 01-1.32 1.305v1zm-12.725 0h12.726v-1H4.637v1zm-2.319-2.305a2.312 2.312 0 002.32 2.305v-1a1.312 1.312 0 01-1.32-1.305h-1zm0-6.868v6.868h1v-6.868h-1zm.586.62l.267-.265-.705-.71-.267.266.705.709zm4.46 5.744H4.637v1h2.727v-1zm-.5-4.931v5.431h1V12.76h-1zm1.406-1.403c-.774 0-1.406.626-1.406 1.403h1c0-.22.18-.403.406-.403v-1zm5.46 0H8.27v1h5.46v-1zm1.406 1.403c0-.777-.631-1.403-1.406-1.403v1c.226 0 .406.182.406.403h1zm0 5.433V12.76h-1v5.433h1zm2.228-.498l-2.727-.002v1l2.726.002v-1zm-.5-8.176v8.676h1V9.519h-1zm-6.217-5.973l6.364 6.328.705-.71-6.363-6.327-.706.71zM4.99 9.874l6.364-6.328-.706-.709-6.363 6.328.705.709zm-.352 8.316h.5V9.52h-1v8.67h.5zm8.681.002v-4.527h-1v4.527h1zm-4.136.5h3.636v-1H9.182v1zm-.5-5.025v4.524h1v-4.524h-1zm4.136-.502l-3.636.002v1l3.636-.002v-1z"></path>
  </symbol>
  <symbol  xmlns="http://www.w3.org/2000/svg" viewBox="0 0 20 16" id="library">
    <path  fill-rule="evenodd" clip-rule="evenodd" d="M1.814 0C.818 0 0 .794 0 1.773v12.454C0 15.207.814 16 1.819 16h16.362C19.185 16 20 15.204 20 14.223V4.444c0-.983-.816-1.777-1.822-1.777h-8.175L8.716.743C8.44.333 7.81 0 7.308 0H1.814zM18.18 14.222l-16.363.005-.004-12.45 5.459.005 1.21 1.858a1.83 1.83 0 001.52.804h8.179l-.001 9.778z"></path>
  </symbol>
  <symbol  xmlns="http://www.w3.org/2000/svg" viewBox="0 0 18 17" id="liked videos">
    <path  fill-rule="evenodd" clip-rule="evenodd" d="M12.6 0C11.217 0 9.955.53 9 1.404A5.318 5.318 0 005.4 0C2.418 0 0 2.468 0 5.514c0 4.444 4.48 8.74 8.62 11.245a.78.78 0 00.762-.001C13.495 14.243 18 9.958 18 5.514 18 2.468 15.582 0 12.6 0zM9.005 14.825C4.555 11.855 1.8 8.385 1.8 5.514c0-2.03 1.612-3.676 3.6-3.676.9 0 1.743.336 2.4.935l.866.792a.502.502 0 00.668 0l.866-.792c.657-.6 1.5-.935 2.4-.935 1.988 0 3.6 1.645 3.6 3.676 0 2.944-2.744 6.34-7.195 9.311z"></path>
  </symbol>
  <symbol  xmlns="http://www.w3.org/2000/svg" viewBox="0 0 18 20" id="music">
    <path  fill-rule="evenodd" clip-rule="evenodd" d="M14.85 17.273c1.74 0 3.15-1.425 3.15-3.182V.93a.9.9 0 00-1.106-.905L5.228 2.791c-.402.095-.677.449-.728.846v10.306a3.11 3.11 0 00-1.35-.306C1.41 13.637 0 15.06 0 16.818S1.41 20 3.15 20s3.15-1.424 3.15-3.182V8.041l9.9-2.348v5.523a3.112 3.112 0 00-1.35-.307c-1.74 0-3.15 1.425-3.15 3.182s1.41 3.182 3.15 3.182zM6.3 6.173V4.404l9.9-2.347v1.768L6.3 6.173zm9.9 7.918c0-.753-.604-1.364-1.35-1.364-.746 0-1.35.611-1.35 1.364 0 .753.604 1.364 1.35 1.364.746 0 1.35-.61 1.35-1.364zM3.15 15.455c.746 0 1.35.61 1.35 1.363s-.604 1.364-1.35 1.364c-.746 0-1.35-.61-1.35-1.364 0-.753.604-1.363 1.35-1.363z"></path>
  </symbol>
  <symbol  xmlns="http://www.w3.org/2000/svg" viewBox="0 0 19 20" id="setting">
    <path  fill-rule="evenodd" clip-rule="evenodd" d="M13.468 3.73l-.742-.434s-.776-2.11-.842-2.254C11.637.447 10.961 0 10.284 0H8.42c-.675 0-1.349.446-1.613 1.068-.054.118-.821 2.228-.821 2.228l-.734.436s-2.236-.39-2.392-.404c-.64-.084-1.365.279-1.704.866l-.93 1.612a1.813 1.813 0 00.118 1.931c.074.106 1.519 1.835 1.519 1.835s-.012.285-.012.428c0 .303.01.429.01.429S.42 12.157.328 12.285c-.392.512-.44 1.322-.102 1.909l.931 1.612c.338.585 1.06.945 1.731.863.13-.012 2.343-.402 2.343-.402l.745.425s.778 2.122.843 2.265c.247.596.924 1.043 1.602 1.043h1.862c.675 0 1.348-.446 1.613-1.068.054-.117.83-2.232.83-2.232l.73-.431 2.38.402c.646.085 1.372-.278 1.71-.865l.932-1.612a1.813 1.813 0 00-.119-1.931c-.074-.106-1.52-1.826-1.52-1.826s.013-.291.013-.437c0-.303-.01-.43-.01-.43s1.443-1.727 1.534-1.855c.392-.512.44-1.322.102-1.909l-.931-1.612a1.813 1.813 0 00-1.732-.863c-.129.012-2.347.399-2.347.399zm-2.526.575l.135.45.431.183c.408.174.793.397 1.147.664l.375.282.457-.108c.664-.158 2.225-.42 2.374-.438.087-.01.835 1.286.783 1.356-.09.12-1.097 1.34-1.566 1.837l-.321.34.055.466a5.579 5.579 0 010 1.327l-.055.465.321.34c.469.496 1.475 1.717 1.566 1.838.052.07-.731 1.361-.783 1.355-.15-.019-1.71-.28-2.374-.438l-.457-.108-.375.282a5.49 5.49 0 01-1.147.664l-.431.184-.135.449c-.195.653-.749 2.135-.808 2.273-.034.08-1.53.08-1.565 0-.059-.138-.612-1.62-.807-2.273l-.135-.45-.431-.183a5.494 5.494 0 01-1.147-.664l-.375-.282-.457.109c-.664.157-2.225.418-2.375.437-.086.01-.835-1.286-.782-1.356.09-.12 1.097-1.34 1.566-1.837l.321-.34-.056-.465a5.569 5.569 0 010-1.328l.056-.465-.321-.34C3.157 8.035 2.15 6.814 2.06 6.693c-.053-.07.696-1.365.782-1.355.15.018 1.71.28 2.375.438l.457.108.375-.282a5.49 5.49 0 011.147-.664l.431-.184.135-.449c.195-.653.749-2.135.807-2.273.035-.08 1.531-.08 1.565 0 .06.138.613 1.62.808 2.273zM9.352 13a3 3 0 110-6 3 3 0 010 6zm1-3a1 1 0 11-2 0 1 1 0 012 0z" ></path>
  </symbol>
  <symbol  xmlns="http://www.w3.org/2000/svg" viewBox="0 0 14 8" id="show more">
    <path  d="M6.67 5.255l4.95-4.95a1 1 0 111.413 1.414L7.376 7.376a1 1 0 01-1.414 0L.305 1.72A1 1 0 111.72.305l4.95 4.95z"></path>
  </symbol>
  <symbol  xmlns="http://www.w3.org/2000/svg" viewBox="0 0 20 20" id="subscriptions">
    <g  >
      <path fill-rule="evenodd" clip-rule="evenodd" d="M4.906 2A1 1 0 015.9 1h8.01a1 1 0 010 2H5.9a.995.995 0 01-.995-1zM1.01 9.095l.801 8.01A2.123 2.123 0 003.901 19H15.91A2.129 2.129 0 0018 17.104l.801-8.01A1.885 1.885 0 0016.905 7H2.906C1.76 7 .896 7.956 1.01 9.095zm2.001-.09l13.789.003L15.906 17h-12L3.01 9.004zM3.901 4a1 1 0 000 2H15.91a1 1 0 000-2H3.901z"></path>
      <path d="M1.811 17.104l-.498.05.498-.05zm-.8-8.01l.497-.049-.498.05zM18 17.105l.497.05-.498-.05zm.8-8.01l-.497-.049.497.05zm-2-.086l.497.056.062-.556H16.8v.5zM3.01 9.004v-.5h-.56l.063.556.497-.056zM15.906 17v.5h.447l.05-.444-.497-.056zm-12 0l-.497.056.05.444h.447V17zM5.9.5A1.5 1.5 0 004.406 2h1a.5.5 0 01.495-.5v-1zm8.01 0H5.9v1h8.01v-1zM15.405 2c0-.831-.669-1.5-1.496-1.5v1c.273 0 .496.22.496.5h1zM13.91 3.5A1.5 1.5 0 0015.406 2h-1a.5.5 0 01-.496.5v1zm-8.009 0h8.01v-1H5.9v1zM4.406 2c0 .831.668 1.5 1.495 1.5v-1a.495.495 0 01-.495-.5h-1zM2.309 17.054l-.801-8.009-.995.1.8 8.009.996-.1zM3.9 18.5a1.623 1.623 0 01-1.592-1.446l-.996.1A2.623 2.623 0 003.901 19.5v-1zm12.009 0H3.901v1H15.91v-1zm1.593-1.446A1.629 1.629 0 0115.91 18.5v1c1.319 0 2.456-1.032 2.588-2.346l-.995-.1zm.8-8.009l-.8 8.01.995.099.8-8.01-.994-.099zM16.906 7.5c.85 0 1.483.699 1.399 1.545l.995.1A2.385 2.385 0 0016.905 6.5v1zm-13.999 0h13.999v-1h-14v1zM1.508 9.045A1.385 1.385 0 012.906 7.5v-1A2.385 2.385 0 00.513 9.145l.995-.1zM16.8 8.508L3.011 8.504v1l13.789.004v-1zm-.398 8.548l.895-7.993-.994-.11-.894 7.991.993.112zM3.906 17.5h12v-1h-12v1zM2.514 9.06l.895 7.996.994-.112-.895-7.995-.994.11zM3.406 5a.5.5 0 01.495-.5v-1A1.5 1.5 0 002.406 5h1zm.495.5a.495.495 0 01-.495-.5h-1c0 .831.668 1.5 1.495 1.5v-1zm12.009 0H3.901v1H15.91v-1zm.496-.5a.5.5 0 01-.496.5v1A1.5 1.5 0 0017.406 5h-1zm-.496-.5c.273 0 .496.22.496.5h1c0-.831-.67-1.5-1.496-1.5v1zm-12.009 0H15.91v-1H3.901v1z"></path>
    </g>
  </symbol>
  <symbol  xmlns="http://www.w3.org/2000/svg" viewBox="0 0 18 23" id="trending">
    <g  >
      <path fill-rule="evenodd" clip-rule="evenodd" d="M14.615 8.2C16.132 9.51 17 11.118 17 13.321c0 4.59-3.587 8.206-7.989 8.206C4.606 21.527 1 17.909 1 13.32c0-2.527.548-4.089 2.155-6.684.509-.822 1.744-.523 1.84.445.085.87.35 1.61.734 2.177-.257-3.066 1.075-6.515 4.357-8.153.76-.38 1.608.319 1.41 1.16-.512 2.183.016 3.356 1.396 4.621.034.031.206.158.433.326.412.304 1.006.742 1.29.987zM3.621 10.007C3.339 10.663 3 11.453 3 13.321c0 3.447 2.701 6.157 6.011 6.157 3.305 0 5.989-2.705 5.989-6.157 0-1.54-.575-2.605-1.674-3.554-.174-.15-.58-.452-.963-.737-.362-.27-.702-.522-.804-.616-1.325-1.214-2.135-2.507-2.245-4.23-.67.668-2.21 2.748-1.342 6.864.135.639-.34 1.241-.977 1.241-1.265 0-2.515-.99-3.279-2.507-.03.074-.062.149-.095.225z"></path>
      <path d="M14.615 8.2l.327-.378-.327.378zM3.155 6.637l.425.263-.425-.263zm1.84.445l-.498.05.497-.05zm.734 2.177l-.414.28 1.071 1.581-.159-1.902-.498.041zm4.357-8.153L9.863.659l.223.447zm1.41 1.16l-.486-.114.487.114zm1.396 4.621l-.337.369.337-.369zm.433.326l.297-.402-.297.402zm-9.704 2.794l.46.198-.46-.198zm9.705-.24l-.327.378.327-.378zm-.963-.737l.299-.401-.299.4zm-.804-.616l.338-.368-.338.368zm-2.245-4.23l.499-.033-.07-1.103-.783.781.354.354zm-1.342 6.864l.49-.103-.49.103zM3.716 9.782l.447-.225-.492-.976-.417 1.01.462.191zM17.5 13.321c0-2.364-.943-4.104-2.558-5.499l-.654.757c1.42 1.226 2.212 2.699 2.212 4.742h1zm-8.489 8.706c4.688 0 8.489-3.849 8.489-8.706h-1c0 4.325-3.373 7.706-7.489 7.706v1zM.5 13.32c0 4.856 3.821 8.706 8.511 8.706v-1c-4.12 0-7.511-3.386-7.511-7.706h-1zm2.23-6.948C1.918 7.685 1.355 8.763 1 9.85c-.358 1.09-.5 2.168-.5 3.47h1c0-1.224.132-2.191.45-3.16.32-.977.835-1.977 1.63-3.261l-.85-.527zm2.762.66c-.14-1.424-1.991-1.905-2.762-.66l.85.527a.495.495 0 01.917.231l.995-.098zm.65 1.946c-.33-.49-.571-1.147-.65-1.946l-.995.098c.093.94.38 1.763.818 2.409l.828-.561zM9.864.659C6.358 2.408 4.961 6.078 5.231 9.3l.996-.083C5.984 6.308 7.25 3.08 10.31 1.553L9.863.66zm2.12 1.722c.288-1.225-.954-2.304-2.12-1.722l.447.894c.354-.176.808.14.7.6l.973.228zm1.247 4.137c-.66-.604-1.068-1.144-1.27-1.755-.203-.608-.22-1.347.023-2.382l-.973-.229c-.27 1.147-.279 2.086 0 2.926.279.839.824 1.517 1.545 2.178l.675-.738zm.392.293l-.286-.213a7.257 7.257 0 01-.088-.066l-.018-.014-.675.738c.04.036.117.095.182.143l.291.216.594-.804zm1.32 1.011c-.302-.261-.916-.714-1.32-1.011l-.594.804c.42.31.995.734 1.26.964l.654-.757zM3.5 13.321c0-1.784.317-2.505.58-3.116l-.919-.395c-.3.7-.661 1.557-.661 3.511h1zm5.511 5.657c-3.026 0-5.511-2.478-5.511-5.657h-1c0 3.715 2.917 6.657 6.511 6.657v-1zm5.489-5.657c0 3.186-2.47 5.657-5.489 5.657v1c3.591 0 6.489-2.94 6.489-6.657h-1zm-1.501-3.176c1.002.866 1.501 1.799 1.501 3.176h1c0-1.702-.652-2.9-1.847-3.933l-.654.757zm-.934-.714c.392.292.778.58.934.714l.654-.757c-.192-.165-.619-.482-.991-.76l-.597.803zm-.844-.648c.127.116.5.392.844.648l.597-.802a18.75 18.75 0 01-.765-.583l-.676.737zM8.815 4.215c.12 1.892 1.02 3.297 2.406 4.568l.676-.737C10.633 6.888 9.912 5.707 9.813 4.15l-.998.064zm-.354 6.73c-.83-3.934.643-5.846 1.206-6.408l-.707-.708c-.777.777-2.383 3.024-1.477 7.322l.978-.206zM6.995 12.79c.97 0 1.663-.91 1.466-1.844l-.978.207a.518.518 0 01-.488.637v1zM3.27 10.007c.808 1.605 2.196 2.782 3.725 2.782v-1c-1 0-2.113-.804-2.832-2.232l-.893.45zm.81.198l.098-.232-.924-.382-.093.219.92.395z"></path>
    </g>
  </symbol>
  <symbol  xmlns="http://www.w3.org/2000/svg" viewBox="0 0 17 19" id="watch later">
    <path  fill-rule="evenodd" clip-rule="evenodd" d="M12.726 16.734A7.809 7.809 0 018.5 17.973c-1.552 0-3-.454-4.226-1.239l-.908 1.616A.983.983 0 012 18.725a1.04 1.04 0 01-.367-1.402s1.05-1.86 1.077-1.897A8.307 8.307 0 01.5 9.756c0-1.223.26-2.384.728-3.427A3.627 3.627 0 010 3.595C0 1.609 1.567 0 3.5 0c1.293 0 2.423.72 3.029 1.792a7.816 7.816 0 013.76-.045C10.901.7 12.017 0 13.292 0c1.933 0 3.5 1.61 3.5 3.595a3.631 3.631 0 01-1.082 2.598 8.368 8.368 0 01.79 3.564c0 2.198-.84 4.195-2.21 5.67.027.036 1.077 1.896 1.077 1.896A1.04 1.04 0 0115 18.725a.983.983 0 01-1.366-.375l-.908-1.616zM7.5 5.648a1.01 1.01 0 011-1.026c.552 0 1 .455 1 1.026v4.109a1.01 1.01 0 01-1 1.027h-2c-.553 0-1-.456-1-1.027a1.01 1.01 0 011-1.027h1V5.648zM2 3.595c0-.851.672-1.541 1.5-1.541.44 0 .843.196 1.12.516a8.091 8.091 0 00-2.303 1.972A1.566 1.566 0 012 3.595zm12.792 0c0-.851-.671-1.541-1.5-1.541a1.48 1.48 0 00-1.05.44 8.076 8.076 0 012.327 1.91 1.57 1.57 0 00.223-.81zM8.5 15.919c-3.314 0-6-2.759-6-6.162 0-3.404 2.686-6.162 6-6.162s6 2.758 6 6.162c0 3.403-2.686 6.162-6 6.162z"></path>
  </symbol>
  <symbol  xmlns="http://www.w3.org/2000/svg" viewBox="0 0 27 26" id="favourites">
    <g filter="url(#filter0_d)">
      <path  fill-rule="evenodd" clip-rule="evenodd" d="M19.588 16.178c.217 1.256-.876 2.046-2.009 1.453 0 0-4.253-2.203-4.211-2.225l-4.25 2.225c-1.134.594-2.225-.198-2.01-1.453 0 0 .791-4.71.824-4.677L4.494 8.163c-.917-.89-.499-2.169.767-2.352 0 0 4.742-.707 4.721-.665L12.107.857c.567-1.143 1.917-1.142 2.483 0 0 0 2.14 4.273 2.094 4.266l4.752.688c1.267.183 1.683 1.462.767 2.352 0 0-3.419 3.347-3.427 3.301l.812 4.714zm-10.492-.62l3.41-1.786a1.91 1.91 0 011.686 0l3.417 1.789-.66-3.785a1.895 1.895 0 01.522-1.597l2.753-2.673-3.806-.556a1.907 1.907 0 01-1.365-.987L13.35 2.526l-1.706 3.437c-.25.503-.808.907-1.364.987l-3.811.552 2.757 2.677c.404.392.617 1.045.522 1.597l-.652 3.781z"></path>
    </g>
    <defs>
      <filter id="filter0_d" x="0" y="0" width="26.697" height="25.832" filterUnits="userSpaceOnUse" color-interpolation-filters="sRGB">
        <feFlood flood-opacity="0" result="BackgroundImageFix"></feFlood>
        <feColorMatrix in="SourceAlpha" values="0 0 0 0 0 0 0 0 0 0 0 0 0 0 0 0 0 0 127 0"></feColorMatrix>
        <feOffset dy="4"></feOffset>
        <feGaussianBlur stdDeviation="2"></feGaussianBlur>
        <feColorMatrix values="0 0 0 0 0 0 0 0 0 0 0 0 0 0 0 0 0 0 0.25 0"></feColorMatrix>
        <feBlend in2="BackgroundImageFix" result="effect1_dropShadow"></feBlend>
        <feBlend in="SourceGraphic" in2="effect1_dropShadow" result="shape"></feBlend>
      </filter>
    </defs>
  </symbol>
  <symbol  xmlns="http://www.w3.org/2000/svg" viewBox="0 0 22 16" id="games">
    <path  fill-rule="evenodd" clip-rule="evenodd" d="M12.903.523C12.107.811 11.768.89 11 .89S9.892.811 9.096.523L9.034.501C8.03.138 7.432 0 6.445 0 4.051 0 1.852 2.283.943 5.065.245 7.2.059 8.567 0 11.539.058 14.493 1.34 15.986 3.66 16c1.455-.008 2.452-.637 3.374-1.78a36.6 36.6 0 00.575-.753l.004-.005c.95-1.227 1.93-1.897 3.39-1.906 1.453.01 2.435.679 3.384 1.907l.003.004c.042.056.433.578.575.754.922 1.142 1.92 1.77 3.363 1.779 2.33-.014 3.613-1.508 3.672-4.427-.06-3.006-.246-4.373-.943-6.508C20.147 2.283 17.949 0 15.554 0c-.987 0-1.584.138-2.588.5l-.063.023zM8.456 2.19c.986.356 1.625.478 2.544.478.918 0 1.558-.122 2.544-.478l.062-.022c.818-.296 1.222-.39 1.948-.39 1.425 0 3.06 1.698 3.755 3.825.637 1.95.802 3.156.858 5.97-.04 1.99-.601 2.643-1.84 2.65-.773-.004-1.308-.34-1.918-1.097a40.522 40.522 0 01-.505-.661v-.001l-.05-.067c-1.259-1.627-2.69-2.604-4.86-2.618-2.158.014-3.59.99-4.848 2.618l-.05.067c-.117.155-.404.536-.505.662-.61.756-1.145 1.093-1.93 1.097-1.227-.007-1.788-.66-1.828-2.684.056-2.78.22-3.985.858-5.936.695-2.127 2.33-3.824 3.754-3.824.727 0 1.13.093 1.949.389l.062.022zm7.127 3.589a.904.904 0 01-.917-.89c0-.49.41-.888.917-.888.506 0 .917.398.917.889 0 .49-.41.889-.917.889zm-.917 2.666c0 .491.41.89.917.89.506 0 .917-.399.917-.89 0-.49-.41-.888-.917-.888-.506 0-.917.398-.917.888zm2.75-.888a.903.903 0 01-.916-.89c0-.49.41-.888.916-.888.507 0 .917.398.917.889 0 .49-.41.889-.916.889zm-4.583-.89c0 .492.41.89.917.89a.903.903 0 00.916-.89c0-.49-.41-.888-.916-.888s-.917.398-.917.889zM6.416 9.334c-1.518 0-2.75-1.194-2.75-2.666C3.667 5.194 4.899 4 6.417 4c1.52 0 2.75 1.194 2.75 2.667 0 1.472-1.23 2.666-2.75 2.666zm.917-2.666c0 .49-.41.889-.917.889a.903.903 0 01-.916-.89c0-.49.41-.888.917-.888.506 0 .916.398.916.889z"></path>
  </symbol>
  <symbol  xmlns="http://www.w3.org/2000/svg" viewBox="0 0 20 18" id="history">
    <path  fill-rule="evenodd" clip-rule="evenodd" d="M6.364 0C4.857 0 3.636 1.207 3.636 2.697V12.6H.91a.905.905 0 00-.909.9v1.8C0 16.791 1.224 18 2.727 18h10.91c1.505 0 2.727-1.206 2.727-2.695V5.4h2.727A.902.902 0 0020 4.502V2.704C20 1.211 18.78 0 17.273 0H6.363zM5.3 16.2c.1-.28.155-.583.155-.897V2.697c0-.495.406-.897.909-.897.5 0 .909.404.909.9v1.8c0 .497.403.9.909.9h6.364v9.905a.902.902 0 01-.91.895H5.3zm-3.482-1.8v.9c0 .496.409.9.91.9a.902.902 0 00.908-.897V14.4H1.818zM9.091 3.6v-.9c0-.316-.055-.619-.156-.9h8.338c.502 0 .909.404.909.904V3.6H9.09z"></path>
  </symbol>
</svg>

</svg>
